<?xml version="1.0" encoding="UTF-8" standalone="no"?>
<!-- Created with Inkscape (http://www.inkscape.org/) -->

<svg
   width="32.0px"
   height="32.0px"
   viewBox="0 0 32.0 32.0"
   version="1.1"
   id="SVGRoot"
   sodipodi:docname="bracket2 (copy).svg"
   inkscape:version="1.2.1 (9c6d41e410, 2022-07-14)"
   xmlns:inkscape="http://www.inkscape.org/namespaces/inkscape"
   xmlns:sodipodi="http://sodipodi.sourceforge.net/DTD/sodipodi-0.dtd"
   xmlns="http://www.w3.org/2000/svg"
   xmlns:svg="http://www.w3.org/2000/svg">
  <sodipodi:namedview
     id="namedview1180"
     pagecolor="#ffffff"
     bordercolor="#666666"
     borderopacity="1.0"
     inkscape:showpageshadow="2"
     inkscape:pageopacity="0.0"
     inkscape:pagecheckerboard="0"
     inkscape:deskcolor="#d1d1d1"
     inkscape:document-units="px"
     showgrid="true"
     inkscape:zoom="24.088664"
     inkscape:cx="30.014118"
     inkscape:cy="14.986302"
     inkscape:window-width="1844"
     inkscape:window-height="1011"
     inkscape:window-x="76"
     inkscape:window-y="32"
     inkscape:window-maximized="1"
     inkscape:current-layer="layer1">
    <inkscape:grid
       type="xygrid"
       id="grid1186" />
  </sodipodi:namedview>
  <defs
     id="defs1175" />
  <g
     inkscape:label="Layer 1"
     inkscape:groupmode="layer"
     id="layer1">
    <path
       style="fill:#ffe0aa;fill-opacity:1;stroke:#ffe0aa;stroke-width:1px;stroke-linecap:butt;stroke-linejoin:miter;stroke-opacity:1"
       d="m 15.099362,0.56733799 c 1.471903,0.0459239 2.00559,-0.13088063 3.23657,0.12211194 1.418345,0.26156533 3.416717,2.13629277 3.625901,4.09383147 0.212454,1.3740675 -0.04208,4.321774 0.04369,6.1689666 0.261842,1.790775 0.742637,2.80207 2.319386,3.690281 3.006815,0.868214 4.343276,0.902293 6.556358,1.064146 -2.008299,2.217239 -2.967707,1.695891 -7.016577,2.05211 -1.932823,0.318211 -1.49355,2.556143 -1.481011,4.390833 0.0411,1.081642 0.165381,2.260938 0.125008,3.340069 -0.06273,1.676618 -0.106564,3.360462 -1.197368,4.430487 -1.001349,0.883783 -2.80415,1.391585 -6.174857,1.4232"
       id="path1306"
       sodipodi:nodetypes="ccccccccscc" />
  </g>
</svg>
