<?xml version="1.0" encoding="UTF-8" standalone="no"?>
<!-- Created with Inkscape (http://www.inkscape.org/) -->

<svg
   width="32.0px"
   height="32.0px"
   viewBox="0 0 32.0 32.0"
   version="1.1"
   id="SVGRoot"
   sodipodi:docname="type5.svg"
   inkscape:version="1.2.1 (9c6d41e410, 2022-07-14)"
   xmlns:inkscape="http://www.inkscape.org/namespaces/inkscape"
   xmlns:sodipodi="http://sodipodi.sourceforge.net/DTD/sodipodi-0.dtd"
   xmlns="http://www.w3.org/2000/svg"
   xmlns:svg="http://www.w3.org/2000/svg">
  <sodipodi:namedview
     id="namedview138"
     pagecolor="#ffffff"
     bordercolor="#666666"
     borderopacity="1.0"
     inkscape:showpageshadow="2"
     inkscape:pageopacity="0.0"
     inkscape:pagecheckerboard="0"
     inkscape:deskcolor="#d1d1d1"
     inkscape:document-units="px"
     showgrid="true"
     inkscape:zoom="24.088664"
     inkscape:cx="24.700415"
     inkscape:cy="15.235382"
     inkscape:window-width="1844"
     inkscape:window-height="1011"
     inkscape:window-x="76"
     inkscape:window-y="32"
     inkscape:window-maximized="1"
     inkscape:current-layer="layer1">
    <inkscape:grid
       type="xygrid"
       id="grid144" />
  </sodipodi:namedview>
  <defs
     id="defs133" />
  <g
     inkscape:label="Layer 1"
     inkscape:groupmode="layer"
     id="layer1">
    <rect
       style="fill:#005588;fill-opacity:1;stroke:none;stroke-width:2.12299;stroke-dasharray:none;stroke-opacity:1"
       id="rect6253"
       width="31.914883"
       height="31.87676"
       x="0.059446048"
       y="0.066475391" />
    <path
       style="fill:#ffffff;fill-opacity:1;stroke:#000000;stroke-width:1.6;stroke-linecap:butt;stroke-linejoin:miter;stroke-dasharray:none;stroke-opacity:1"
       d="M 2.0546075,4.0553969 C 2.0035761,1.9893889 5.021022,1.1226259 6.9678383,2.107768 c 2.0127866,0.9532581 -0.6918069,8.088358 1.8515344,9.751066 0.9127518,0.59671 1.2904223,1.20395 3.2855683,1.194977 1.844577,-0.0083 2.702293,-0.580127 3.331347,-1.617103 1.21922,-2.0921848 -0.40009,-6.3609777 1.692382,-8.415156 1.832402,-1.988432 9.785323,-2.05840995 11.85,-0.9777871 1.025051,2.0434497 1.105925,10.9734241 -1.905709,10.9103641 -4.199317,0.01725 -6.124197,2.301915 -6.042743,5.170195 0.08833,3.110302 5.055601,2.834337 7.043883,5.132304 2.00478,1.85406 -0.996796,5.850895 -3.01857,5.825259 -2.036899,-0.018 -4.159276,-0.233848 -6.0289,-1.1193 -1.94425,-0.920795 -5.026155,-1.991527 -6.984826,-1.949549 -2.035713,0.01337 -6.8937727,3.035655 -9.016072,2.977803 C 2.1102109,28.107685 4.0237054,23.046831 4.0064758,20.989065 4.0383373,19.073772 2.0427361,17.898175 2.0988221,15.236026 1.9184859,12.632445 2.0377138,6.0464952 2.0546075,4.0553969 Z"
       id="path268"
       sodipodi:nodetypes="cccsccccsccsccccc" />
  </g>
</svg>
