<?xml version="1.0" encoding="UTF-8" standalone="no"?>
<!-- Created with Inkscape (http://www.inkscape.org/) -->

<svg
   width="32.0px"
   height="32.0px"
   viewBox="0 0 32.0 32.0"
   version="1.1"
   id="SVGRoot"
   sodipodi:docname="type7.svg"
   inkscape:version="1.2.1 (9c6d41e410, 2022-07-14)"
   xmlns:inkscape="http://www.inkscape.org/namespaces/inkscape"
   xmlns:sodipodi="http://sodipodi.sourceforge.net/DTD/sodipodi-0.dtd"
   xmlns="http://www.w3.org/2000/svg"
   xmlns:svg="http://www.w3.org/2000/svg">
  <sodipodi:namedview
     id="namedview138"
     pagecolor="#ffffff"
     bordercolor="#666666"
     borderopacity="1.0"
     inkscape:showpageshadow="2"
     inkscape:pageopacity="0.0"
     inkscape:pagecheckerboard="0"
     inkscape:deskcolor="#d1d1d1"
     inkscape:document-units="px"
     showgrid="true"
     inkscape:zoom="34.066515"
     inkscape:cx="19.638052"
     inkscape:cy="12.093987"
     inkscape:window-width="1844"
     inkscape:window-height="1011"
     inkscape:window-x="76"
     inkscape:window-y="32"
     inkscape:window-maximized="1"
     inkscape:current-layer="layer1">
    <inkscape:grid
       type="xygrid"
       id="grid144" />
  </sodipodi:namedview>
  <defs
     id="defs133" />
  <g
     inkscape:label="Layer 1"
     inkscape:groupmode="layer"
     id="layer1">
    <rect
       style="fill:#88ffaa;fill-opacity:1;stroke:none;stroke-width:2.12299;stroke-dasharray:none;stroke-opacity:1"
       id="rect6253"
       width="31.914883"
       height="31.87676"
       x="0.059446048"
       y="0.066475391" />
    <path
       style="fill:#ffffff;stroke:#000000;stroke-width:1px;stroke-linecap:butt;stroke-linejoin:miter;stroke-opacity:1;fill-opacity:1"
       d="m 9.5408715,22.161273 c 1.2393205,-1.835231 1.4904115,-2.269606 2.1943095,-3.551166 0.61026,-1.033524 0.88115,-1.517779 1.60045,-2.820504 0.695278,-1.241138 0.683278,-1.230364 1.287426,-2.742435 0.537188,-0.975397 0.660283,-1.342298 1.021499,-2.396467 0.317809,-1.0481223 0.364495,-1.1348458 0.723965,-2.2572873 0.240983,-0.8056936 0.781176,-2.4472059 0.857414,-2.7178609 0.183049,0.5149009 0.71923,2.2901995 0.874343,2.7919046 0.364863,1.4872458 0.742012,2.1519766 1.162737,3.3782316 0.23766,0.758653 0.458878,1.599447 0.732097,2.311312 0.221638,0.788072 0.736276,1.671979 1.001042,2.450125 0.322977,0.803287 0.512408,1.486592 0.817592,2.251413 0.477172,1.122277 0.743224,1.793024 1.101995,2.758714 0.422671,0.973376 0.473861,1.405058 0.616277,1.708671 0.356343,0.807863 0.632924,1.525268 0.910128,2.366426 -0.753204,-0.654124 -1.458068,-1.246273 -1.865319,-1.600389 -0.766383,-0.597422 -1.185536,-1.044532 -2.049974,-1.641729 -1.116994,-0.886048 -0.239412,-0.281915 -1.820456,-1.361524 -1.036235,-0.63491 -1.193299,-0.806207 -1.638369,-1.095593 -0.710662,-0.40789 -1.555889,-1.045699 -1.859894,-1.28583 -0.436462,-0.23696 -0.870731,-0.555401 -1.272098,-0.786881 C 13.475524,17.508303 12.89718,17.174512 12.415346,16.900448 11.817814,16.520309 11.182821,16.141313 10.622865,15.790681 10.149204,15.604544 9.744245,15.306664 9.3270058,15.079543 8.7697416,14.861593 8.428194,14.686684 7.8923569,14.419764 7.5460337,14.19429 7.1827307,14.010594 6.8145651,13.806314 6.1209483,13.549774 5.2064613,13.084902 4.8145542,12.857978 c 0.8326471,0.01357 1.3482555,0 2.0396246,0 0.5833732,0.02016 1.1234988,-0.02338 1.7237656,-0.05565 0.7050907,-0.03154 1.0023058,-0.09493 1.2866887,-0.102759 0.8675349,-0.106196 1.4411859,-0.05319 4.1727559,-0.280937 2.887226,-0.217673 3.552962,-0.311208 5.190669,-0.55701 1.749367,-0.161792 2.315828,-0.225499 3.047525,-0.359007 0.763371,-0.121584 1.120154,-0.197207 2.00796,-0.343741 0.743322,-0.17926 1.4481,-0.317002 2.13673,-0.45999 -0.674023,0.626053 -1.416934,1.181487 -2.193045,1.67535 -0.900087,0.705165 -1.391494,1.091424 -2.40448,1.776735 -0.554132,0.444999 -1.130504,0.842479 -1.429808,1.083861 -0.467967,0.408514 -0.608572,0.557314 -1.462992,1.163651 -0.618799,0.403319 -0.800146,0.589101 -1.422966,1.085631 -0.66357,0.614345 -0.951323,0.823486 -1.55802,1.329558 -0.176862,0.250671 -0.431761,0.421255 -0.642878,0.614095 -0.762243,0.857961 -1.739764,1.784225 -2.518127,2.529502 -0.680471,0.634113 -1.00197,0.99513 -1.679969,1.661037 -1.475001,1.347963 -2.2424663,1.806391 -4.1444627,2.415972 1.1079844,-1.671056 1.5566289,-2.308975 2.5773462,-3.873003 z"
       id="path1270"
       sodipodi:nodetypes="cccccccccccccccccccccccccccccccccccccccccccccc" />
  </g>
</svg>
