<?xml version="1.0" encoding="UTF-8" standalone="no"?>
<!-- Created with Inkscape (http://www.inkscape.org/) -->

<svg
   width="32.0px"
   height="32.0px"
   viewBox="0 0 32.0 32.0"
   version="1.1"
   id="SVGRoot"
   sodipodi:docname="type1.svg"
   inkscape:version="1.2.1 (9c6d41e410, 2022-07-14)"
   xmlns:inkscape="http://www.inkscape.org/namespaces/inkscape"
   xmlns:sodipodi="http://sodipodi.sourceforge.net/DTD/sodipodi-0.dtd"
   xmlns="http://www.w3.org/2000/svg"
   xmlns:svg="http://www.w3.org/2000/svg">
  <sodipodi:namedview
     id="namedview138"
     pagecolor="#ffffff"
     bordercolor="#666666"
     borderopacity="1.0"
     inkscape:showpageshadow="2"
     inkscape:pageopacity="0.0"
     inkscape:pagecheckerboard="0"
     inkscape:deskcolor="#d1d1d1"
     inkscape:document-units="px"
     showgrid="true"
     inkscape:zoom="24.088664"
     inkscape:cx="24.700415"
     inkscape:cy="15.110842"
     inkscape:window-width="1844"
     inkscape:window-height="1011"
     inkscape:window-x="76"
     inkscape:window-y="32"
     inkscape:window-maximized="1"
     inkscape:current-layer="layer1">
    <inkscape:grid
       type="xygrid"
       id="grid144" />
  </sodipodi:namedview>
  <defs
     id="defs133" />
  <g
     inkscape:label="Layer 1"
     inkscape:groupmode="layer"
     id="layer1">
    <rect
       style="fill:#88ffaa;fill-opacity:1;stroke:none;stroke-width:2.12299;stroke-dasharray:none;stroke-opacity:1"
       id="rect6253"
       width="31.914883"
       height="31.87676"
       x="0.059446048"
       y="0.066475391" />
    <path
       style="fill:#ffffff;fill-opacity:1;stroke:#000000;stroke-width:2;stroke-linecap:butt;stroke-linejoin:miter;stroke-dasharray:none;stroke-opacity:1"
       d="M 4.0578435,17.99515 C 2.0704105,16.021326 2.9403029,12.183377 2.9520084,10.044684 3.0533747,7.0898053 5.2205095,5.9747188 6.990233,5.0025252 8.9672416,4.1019407 12.518615,2.992727 15.216201,3.1728815 c 3.129409,0.2089931 4.859936,0.3818607 7.296361,1.5419131 2.186353,1.4788709 3.972788,2.7267984 5.537819,4.9788336 0.919018,1.4887238 0.892191,4.0496368 0.898118,7.2519798 0.0044,2.387529 -0.06506,4.877346 -0.0089,6.722256 0.100458,2.210642 -0.756529,6.22701 -4.920418,6.348706 0.02976,-2.055582 0.08864,-3.008222 -1.914987,-3.02366 -2.033541,-0.01567 -2.062257,1.079566 -2.058354,3.012554 -1.600535,-0.0079 -3.130468,-0.0128 -5.008039,0.0037 -1.99057,0.01745 -3.015881,-0.973718 -4.043199,-1.942036 -1.0228111,-1.079094 -0.954942,-3.111036 -0.980938,-4.966653 0.0014,-2.433234 0.01464,-6.923662 -0.040976,-9.081602 0.023648,-2.122685 5.45701,-6.90524 7.106541,-7.0127065 1.917816,0.022335 6.996367,6.1296825 7.031551,8.0465835 -0.0035,2.04999 -4.102814,-0.111204 -4.068376,2.087871 -0.02063,1.999451 -0.228602,4.423672 -2.913019,4.142932 -1.172463,0.03445 -3.098966,-1.452513 -3.079488,-4.002763 0.08362,-2.277478 -1.881171,-2.252609 -4.1373829,-2.252896 -2.0179853,0.03383 -3.9202239,5.034029 -5.8546706,2.967256 z"
       id="path268"
       sodipodi:nodetypes="cccsccsccscscccccccccc" />
  </g>
</svg>
