<?xml version="1.0" encoding="UTF-8" standalone="no"?>
<!-- Created with Inkscape (http://www.inkscape.org/) -->

<svg
   width="32.0px"
   height="32.0px"
   viewBox="0 0 32.0 32.0"
   version="1.1"
   id="SVGRoot"
   sodipodi:docname="type7.svg"
   inkscape:version="1.2.1 (9c6d41e410, 2022-07-14)"
   xmlns:inkscape="http://www.inkscape.org/namespaces/inkscape"
   xmlns:sodipodi="http://sodipodi.sourceforge.net/DTD/sodipodi-0.dtd"
   xmlns="http://www.w3.org/2000/svg"
   xmlns:svg="http://www.w3.org/2000/svg">
  <sodipodi:namedview
     id="namedview138"
     pagecolor="#ffffff"
     bordercolor="#666666"
     borderopacity="1.0"
     inkscape:showpageshadow="2"
     inkscape:pageopacity="0.0"
     inkscape:pagecheckerboard="0"
     inkscape:deskcolor="#d1d1d1"
     inkscape:document-units="px"
     showgrid="true"
     inkscape:zoom="24.088664"
     inkscape:cx="17.435587"
     inkscape:cy="16.397755"
     inkscape:window-width="1844"
     inkscape:window-height="1011"
     inkscape:window-x="76"
     inkscape:window-y="32"
     inkscape:window-maximized="1"
     inkscape:current-layer="layer1">
    <inkscape:grid
       type="xygrid"
       id="grid144" />
  </sodipodi:namedview>
  <defs
     id="defs133" />
  <g
     inkscape:label="Layer 1"
     inkscape:groupmode="layer"
     id="layer1">
    <rect
       style="fill:#88ffaa;fill-opacity:1;stroke:none;stroke-width:2.12299;stroke-dasharray:none;stroke-opacity:1"
       id="rect6253"
       width="31.914883"
       height="31.87676"
       x="0.059446048"
       y="0.066475391" />
    <path
       style="fill:#ffffff;fill-opacity:1;stroke:#000000;stroke-width:1px;stroke-linecap:butt;stroke-linejoin:miter;stroke-opacity:1"
       d="m 9.9709816,20.039726 c 1.5875344,-2.862215 2.1045564,-4.081909 3.6352204,-7.130768 1.477814,-2.9640932 2.373176,-4.8553776 3.619733,-7.2334052 0.513633,1.583325 0.71923,2.2901995 0.874343,2.7919046 0.364863,1.4872458 0.742012,2.1519766 1.162737,3.3782316 0.23766,0.758653 0.458878,1.599447 0.732097,2.311312 0.221638,0.788072 0.736276,1.671979 1.001042,2.450125 0.322977,0.803287 0.512408,1.486592 0.817592,2.251413 1.318355,2.617339 2.221359,4.264865 2.6284,6.833811 C 22.128729,24.061254 20.747573,22.67524 18.706397,21.088708 17.172644,19.996541 16.426122,19.610159 15.208134,18.707285 14.229263,18.14386 13.337542,17.455144 12.415346,16.900448 11.817814,16.520309 11.182821,16.141313 10.622865,15.790681 10.149204,15.604544 9.744245,15.306664 9.3270058,15.079543 8.3787287,14.714889 7.6407268,14.261663 6.8145651,13.806314 6.1209483,13.549774 5.2064613,13.084902 4.8145542,12.857978 c 0.8326471,0.01357 1.3482555,0 2.0396246,0 1.0623828,0.0058 1.9941575,-0.06209 3.0104543,-0.158409 0.8675349,-0.106196 1.4411859,-0.05319 4.1727559,-0.280937 2.887226,-0.217673 3.552962,-0.311208 5.190669,-0.55701 1.749367,-0.161792 2.525949,-0.322205 3.257646,-0.455713 1.673663,-0.155873 2.551521,-0.326635 4.567171,-0.44558 -2.045251,2.081326 -2.972433,1.976081 -5.021648,3.150016 -1.984704,1.001278 -2.988572,1.927492 -4.987127,3.870036 -2.051301,2.033427 -2.669478,2.458035 -4.256143,3.976886 -0.680471,0.634113 -1.114107,1.378059 -1.792106,2.043966 -1.4750011,1.347963 -1.9013828,2.040494 -4.0323257,2.033043 0.8790531,-2.1725 1.5296417,-3.032552 3.0074563,-5.99455 z"
       id="path1270"
       sodipodi:nodetypes="cccccccccccccccccccccccccccc" />
  </g>
</svg>
