<?xml version="1.0" encoding="UTF-8" standalone="no"?>
<!-- Created with Inkscape (http://www.inkscape.org/) -->

<svg
   width="32.0px"
   height="32.0px"
   viewBox="0 0 32.0 32.0"
   version="1.1"
   id="SVGRoot"
   sodipodi:docname="type4.svg"
   inkscape:version="1.2.1 (9c6d41e410, 2022-07-14)"
   xmlns:inkscape="http://www.inkscape.org/namespaces/inkscape"
   xmlns:sodipodi="http://sodipodi.sourceforge.net/DTD/sodipodi-0.dtd"
   xmlns="http://www.w3.org/2000/svg"
   xmlns:svg="http://www.w3.org/2000/svg">
  <sodipodi:namedview
     id="namedview138"
     pagecolor="#ffffff"
     bordercolor="#666666"
     borderopacity="1.0"
     inkscape:showpageshadow="2"
     inkscape:pageopacity="0.0"
     inkscape:pagecheckerboard="0"
     inkscape:deskcolor="#d1d1d1"
     inkscape:document-units="px"
     showgrid="true"
     inkscape:zoom="24.088664"
     inkscape:cx="24.700415"
     inkscape:cy="15.193869"
     inkscape:window-width="1844"
     inkscape:window-height="1011"
     inkscape:window-x="76"
     inkscape:window-y="32"
     inkscape:window-maximized="1"
     inkscape:current-layer="layer1">
    <inkscape:grid
       type="xygrid"
       id="grid144" />
  </sodipodi:namedview>
  <defs
     id="defs133" />
  <g
     inkscape:label="Layer 1"
     inkscape:groupmode="layer"
     id="layer1">
    <rect
       style="fill:#005544;fill-opacity:1;stroke:none;stroke-width:2.12299;stroke-dasharray:none;stroke-opacity:1"
       id="rect6253"
       width="31.914883"
       height="31.87676"
       x="0.059446048"
       y="0.066475391" />
    <path
       style="fill:#000000;fill-opacity:1;stroke:#ffffff;stroke-width:1.6;stroke-linecap:butt;stroke-linejoin:miter;stroke-dasharray:none;stroke-opacity:1"
       d="M 3.029799,9.0819157 C 3.0683327,6.9209001 4.1638856,4.9341839 5.0578464,4.076513 6.007077,3.1519682 8.0073942,3.0634264 9.0009071,4.022523 c 1.0079409,1.086486 1.0023639,5.9074188 0.997809,7.957027 0.031673,1.156481 1.0707229,2.080238 3.1457259,2.095736 1.966732,0.01469 3.331805,-1.042896 3.964398,-2.063459 0.969466,-1.988677 -2.207365,-5.8988651 -0.0648,-8.0383479 1.049626,-0.9857829 4.868231,-1.0345134 6.956767,-0.9205684 1.979325,0.013406 3.068864,0.00316 4.009749,2.9623602 0.04379,2.7935187 0.02889,4.8135711 0.06325,6.9575041 0.06375,1.971963 0.03318,3.028531 0.02417,4.922892 -0.03131,2.127821 -0.06586,5.670125 -0.07244,9.029553 -0.0073,2.055099 -2.092952,3.113801 -2.993277,3.103671 -2.11038,0.0082 -11.962646,0.994748 -12.980808,0.0081 C 11.045313,29.252212 9.0726041,27.038846 6.0687831,27.049875 3.9245346,26.931539 2.96499,24.114404 2.9878796,22.078941 c 0.022846,-2.031626 0.023904,-4.972112 0.035429,-7.027414 -0.013333,-1.997402 -0.00538,-3.966338 0.00649,-5.9696113 z"
       id="path268"
       sodipodi:nodetypes="ccccsccccccccccscc" />
  </g>
</svg>
