<?xml version="1.0" encoding="UTF-8" standalone="no"?>
<!-- Created with Inkscape (http://www.inkscape.org/) -->

<svg
   width="32.0px"
   height="32.0px"
   viewBox="0 0 32.0 32.0"
   version="1.1"
   id="SVGRoot"
   sodipodi:docname="type9.svg"
   inkscape:version="1.2.1 (9c6d41e410, 2022-07-14)"
   xmlns:inkscape="http://www.inkscape.org/namespaces/inkscape"
   xmlns:sodipodi="http://sodipodi.sourceforge.net/DTD/sodipodi-0.dtd"
   xmlns="http://www.w3.org/2000/svg"
   xmlns:svg="http://www.w3.org/2000/svg">
  <sodipodi:namedview
     id="namedview138"
     pagecolor="#ffffff"
     bordercolor="#666666"
     borderopacity="1.0"
     inkscape:showpageshadow="2"
     inkscape:pageopacity="0.0"
     inkscape:pagecheckerboard="0"
     inkscape:deskcolor="#d1d1d1"
     inkscape:document-units="px"
     showgrid="true"
     inkscape:zoom="24.088664"
     inkscape:cx="17.809207"
     inkscape:cy="19.096119"
     inkscape:window-width="1844"
     inkscape:window-height="1011"
     inkscape:window-x="76"
     inkscape:window-y="32"
     inkscape:window-maximized="1"
     inkscape:current-layer="layer1">
    <inkscape:grid
       type="xygrid"
       id="grid144" />
  </sodipodi:namedview>
  <defs
     id="defs133" />
  <g
     inkscape:label="Layer 1"
     inkscape:groupmode="layer"
     id="layer1">
    <rect
       style="fill:#ff6688;fill-opacity:1;stroke:none;stroke-width:2.12299;stroke-dasharray:none;stroke-opacity:1"
       id="rect6253"
       width="31.914883"
       height="31.87676"
       x="0.059446048"
       y="0.066475391" />
    <path
       style="fill:#ffffff;fill-opacity:1;stroke:#000000;stroke-width:1px;stroke-linecap:butt;stroke-linejoin:miter;stroke-opacity:1"
       d="m 9.5408715,22.161273 c 1.2393205,-1.835231 1.4904115,-2.269606 2.1943095,-3.551166 0.61026,-1.033524 0.88115,-1.517779 1.60045,-2.820504 0.695278,-1.241138 0.683278,-1.230364 1.287426,-2.742435 0.537188,-0.975397 0.660283,-1.342298 1.021499,-2.396467 0.317809,-1.0481223 0.364495,-1.1348458 0.723965,-2.2572873 0.240983,-0.8056936 0.339393,-1.4037281 0.857414,-2.7178609 0.765436,-1.5337821 2.683242,-1.5030646 3.234819,-0.031188 0.145372,0.6889099 0.209216,1.3997565 -0.155881,2.5361237 -0.415424,1.2930083 -1.265784,3.0125395 -1.041858,3.6652005 0.23766,0.758653 0.458878,1.599447 0.732097,2.311312 0.221638,0.788072 0.736276,1.671979 1.001042,2.450125 0.322977,0.803287 0.512408,1.486592 0.817592,2.251413 0.477172,1.122277 0.743224,1.793023 1.101995,2.758714 0.422671,0.973375 0.473861,1.405058 0.616277,1.708671 0.356343,0.807863 0.632924,1.525268 0.910128,2.366426 -0.753204,-0.654124 -1.458068,-1.246273 -1.865319,-1.600389 -0.766383,-0.597423 -1.185536,-1.044532 -2.049974,-1.64173 -1.116994,-0.886047 -0.239412,-0.281915 -1.820456,-1.361523 -1.036235,-0.634911 -1.193299,-0.806208 -1.638369,-1.095594 -0.710662,-0.407889 -1.555889,-1.045698 -1.859894,-1.28583 -0.436462,-0.23696 -0.870731,-0.555401 -1.272098,-0.786881 -2.371113,-1.861647 -4.3020275,-3.322156 -4.0616137,-4.255801 0.6990837,-2.714885 10.9035217,-2.03664 12.4011607,-2.161987 2.096749,-0.122357 3.361809,-0.201327 4.936534,-0.196745 -1.407245,1.324208 -2.328675,1.788491 -3.729404,2.738994 -2.227541,1.253332 -3.486926,1.594875 -4.552765,2.353616 -0.618799,0.403319 -0.800146,0.589101 -1.422966,1.085631 -0.66357,0.614345 -0.951323,0.823486 -1.55802,1.329558 -0.176862,0.250671 -0.431761,0.421255 -0.642878,0.614095 -0.762243,0.857961 -1.739764,1.784225 -2.518127,2.529502 -0.680471,0.634113 -1.00197,0.99513 -1.679969,1.661037 -1.475001,1.347963 -2.2424663,1.806391 -4.1444627,2.415972 1.1079844,-1.671056 1.5566289,-2.308975 2.5773462,-3.873002 z"
       id="path1270"
       sodipodi:nodetypes="ccccccccscccccccccccccsccccccccccc" />
  </g>
</svg>
