<?xml version="1.0" encoding="UTF-8" standalone="no"?>
<!-- Created with Inkscape (http://www.inkscape.org/) -->

<svg
   width="32.0px"
   height="32.0px"
   viewBox="0 0 32.0 32.0"
   version="1.1"
   id="SVGRoot"
   sodipodi:docname="type6.svg"
   inkscape:version="1.2.1 (9c6d41e410, 2022-07-14)"
   xmlns:inkscape="http://www.inkscape.org/namespaces/inkscape"
   xmlns:sodipodi="http://sodipodi.sourceforge.net/DTD/sodipodi-0.dtd"
   xmlns="http://www.w3.org/2000/svg"
   xmlns:svg="http://www.w3.org/2000/svg">
  <sodipodi:namedview
     id="namedview138"
     pagecolor="#ffffff"
     bordercolor="#666666"
     borderopacity="1.0"
     inkscape:showpageshadow="2"
     inkscape:pageopacity="0.0"
     inkscape:pagecheckerboard="0"
     inkscape:deskcolor="#d1d1d1"
     inkscape:document-units="px"
     showgrid="true"
     inkscape:zoom="24.088664"
     inkscape:cx="24.700415"
     inkscape:cy="15.110842"
     inkscape:window-width="1844"
     inkscape:window-height="1011"
     inkscape:window-x="76"
     inkscape:window-y="32"
     inkscape:window-maximized="1"
     inkscape:current-layer="layer1">
    <inkscape:grid
       type="xygrid"
       id="grid144" />
  </sodipodi:namedview>
  <defs
     id="defs133" />
  <g
     inkscape:label="Layer 1"
     inkscape:groupmode="layer"
     id="layer1">
    <rect
       style="fill:#ff55aa;fill-opacity:1;stroke:none;stroke-width:2.12299;stroke-dasharray:none;stroke-opacity:1"
       id="rect6253"
       width="31.914883"
       height="31.87676"
       x="0.059446048"
       y="0.066475391" />
    <path
       style="fill:#000000;fill-opacity:1;stroke:#ffffff;stroke-width:2;stroke-linecap:butt;stroke-linejoin:miter;stroke-dasharray:none;stroke-opacity:1"
       d="m 3.4605576,18.402705 c -0.00664,-1.197274 -0.4990348,-5.290525 -0.4842822,-7.395802 0.017568,-2.0196906 0.069427,-5.8440727 0.058661,-7.9204443 3.9982404,-0.029804 4.938454,-0.021513 7.0400964,-0.035787 2.049623,-0.051639 3.662354,-0.1158339 4.961648,-0.071805 1.186683,-0.014235 3.05832,0.1116463 4.943622,1.0103623 2.087385,1.0131938 2.184523,1.0453395 4.063782,3.0169458 1.960632,2.0062939 2.966814,2.9153601 3.997914,5.0392041 0.850321,1.891735 -0.05264,3.93422 -0.03485,5.851042 -0.01463,2.053463 -0.02646,3.094252 0.04259,5.265857 0.01256,1.859671 0.05361,4.740968 -2.977931,6.842718 -3.035976,0.949568 -8.242099,0.352165 -9.937394,-0.01261 -2.4505,-1.244745 -3.873608,-3.856075 -4.533848,-5.015747 -0.554254,-1.304249 -1.554647,-4.05251 -1.9049914,-5.265469 -0.393887,-2.303511 0.2475473,-2.637634 1.3099084,-4.796365 1.043616,-1.887954 4.029207,-1.942785 7.032451,-1.930668 2.964158,-0.03179 6.000541,2.105485 5.958616,4.967988 -0.0032,2.134402 -1.00223,3.093154 -3.010232,5.09421 -1.909202,1.86695 -2.384773,2.252387 -3.826787,3.028628 -2.065384,1.111802 -4.248243,0.202425 -6.2670539,0.816013 C 7.7271048,27.415813 4.1070586,28.672348 3.5679773,26.123078 2.9595116,24.110411 3.4184621,19.756842 3.4605576,18.402705 Z"
       id="path268"
       sodipodi:nodetypes="ccccccccccccccccccsccc" />
  </g>
</svg>
