<?xml version="1.0" encoding="UTF-8" standalone="no"?>
<!-- Created with Inkscape (http://www.inkscape.org/) -->

<svg
   width="32.0px"
   height="32.0px"
   viewBox="0 0 32.0 32.0"
   version="1.1"
   id="SVGRoot"
   sodipodi:docname="type3.svg"
   inkscape:version="1.2.1 (9c6d41e410, 2022-07-14)"
   xmlns:inkscape="http://www.inkscape.org/namespaces/inkscape"
   xmlns:sodipodi="http://sodipodi.sourceforge.net/DTD/sodipodi-0.dtd"
   xmlns="http://www.w3.org/2000/svg"
   xmlns:svg="http://www.w3.org/2000/svg">
  <sodipodi:namedview
     id="namedview138"
     pagecolor="#ffffff"
     bordercolor="#666666"
     borderopacity="1.0"
     inkscape:showpageshadow="2"
     inkscape:pageopacity="0.0"
     inkscape:pagecheckerboard="0"
     inkscape:deskcolor="#d1d1d1"
     inkscape:document-units="px"
     showgrid="true"
     inkscape:zoom="24.088664"
     inkscape:cx="24.700415"
     inkscape:cy="18.431906"
     inkscape:window-width="1844"
     inkscape:window-height="1011"
     inkscape:window-x="76"
     inkscape:window-y="32"
     inkscape:window-maximized="1"
     inkscape:current-layer="layer1">
    <inkscape:grid
       type="xygrid"
       id="grid144" />
  </sodipodi:namedview>
  <defs
     id="defs133" />
  <g
     inkscape:label="Layer 1"
     inkscape:groupmode="layer"
     id="layer1">
    <rect
       style="fill:#ffaaff;fill-opacity:1;stroke:none;stroke-width:2.12299;stroke-dasharray:none;stroke-opacity:1"
       id="rect6253"
       width="31.914883"
       height="31.87676"
       x="0.059446048"
       y="0.066475391" />
    <path
       style="fill:#ffffff;fill-opacity:1;stroke:#000000;stroke-width:2;stroke-linecap:butt;stroke-linejoin:miter;stroke-dasharray:none;stroke-opacity:1"
       d="M 2.9720543,11.094401 C 3.0770312,8.0229246 4.0113539,7.0457057 6.9164965,7.0033364 c 3.1416425,0.043921 1.0489765,6.9390126 4.2075265,6.9264256 2.89288,-0.01153 6.035828,1.066867 6.046291,-1.516584 -0.04801,-2.4258092 -4.240915,-9.359537 -1.085537,-9.4377597 2.89959,0.030393 8.848007,-0.057274 11.000315,0.049303 1.766803,0.077125 0.948387,5.085446 0.924218,7.9629187 0.02903,3.027989 0.04272,4.059969 0.147838,6.653162 -0.06781,2.311529 1.699554,6.552806 1.745124,7.759394 0.100458,2.210642 -1.418276,4.734202 -4.932466,4.631982 -1.360516,-0.04692 -3.051263,-5.11919 -4.210345,-7.358347 -1.495913,-3.465491 -6.045134,-3.338918 -7.079067,-0.985766 -0.810244,2.05181 2.473689,8.28691 -0.67469,8.320455 -3.1074098,-0.04383 -4.8921043,-0.0024 -7.9928649,-0.05028 -2.8076708,-0.0046 -2.1213399,-5.051863 -2.0154237,-7.608015 0.033629,-2.208372 -0.052657,-8.327056 -0.025361,-11.255827 z"
       id="path268"
       sodipodi:nodetypes="ccsccccccccccccc" />
  </g>
</svg>
