<?xml version="1.0" encoding="UTF-8" standalone="no"?>
<svg
   width="120.1mm"
   height="160.10001mm"
   viewBox="0 0 120.1 160.10001"
   version="1.1"
   id="svg8"
   sodipodi:docname="card_clubs_back.svg"
   inkscape:version="1.2.1 (9c6d41e410, 2022-07-14)"
   xmlns:inkscape="http://www.inkscape.org/namespaces/inkscape"
   xmlns:sodipodi="http://sodipodi.sourceforge.net/DTD/sodipodi-0.dtd"
   xmlns="http://www.w3.org/2000/svg"
   xmlns:svg="http://www.w3.org/2000/svg"
   xmlns:rdf="http://www.w3.org/1999/02/22-rdf-syntax-ns#"
   xmlns:cc="http://creativecommons.org/ns#"
   xmlns:dc="http://purl.org/dc/elements/1.1/">
  <sodipodi:namedview
     id="namedview17"
     pagecolor="#ffffff"
     bordercolor="#666666"
     borderopacity="1.0"
     inkscape:showpageshadow="2"
     inkscape:pageopacity="0.0"
     inkscape:pagecheckerboard="0"
     inkscape:deskcolor="#d1d1d1"
     inkscape:document-units="mm"
     showgrid="false"
     inkscape:zoom="1.3964579"
     inkscape:cx="431.09069"
     inkscape:cy="384.54435"
     inkscape:window-width="1844"
     inkscape:window-height="1011"
     inkscape:window-x="76"
     inkscape:window-y="32"
     inkscape:window-maximized="1"
     inkscape:current-layer="layer1" />
  <defs
     id="defs2" />
  <metadata
     id="metadata5">
    <rdf:RDF>
      <cc:Work
         rdf:about="">
        <dc:format>image/svg+xml</dc:format>
        <dc:type
           rdf:resource="http://purl.org/dc/dcmitype/StillImage" />
      </cc:Work>
    </rdf:RDF>
  </metadata>
  <g
     id="layer1"
     transform="translate(-47.961833,-58.49792)">
    <rect
       style="font-variation-settings:normal;opacity:1;vector-effect:none;fill:#ccffcc;fill-opacity:1;fill-rule:evenodd;stroke:#80ff40;stroke-width:0.1;stroke-linecap:butt;stroke-linejoin:miter;stroke-miterlimit:4;stroke-dasharray:none;stroke-dashoffset:0;stroke-opacity:1;stop-color:#000000;stop-opacity:1"
       id="rect10"
       width="120"
       height="160"
       x="48.011833"
       y="58.54792" />
    <path
       style="fill:#ffe0c0;fill-opacity:1;stroke:#000000;stroke-width:3;stroke-linecap:butt;stroke-linejoin:miter;stroke-dasharray:none;stroke-opacity:1"
       d="m 92.34219,206.19467 c 30.85199,-16.3895 43.05167,-23.31004 67.96331,-37.4303 0.0116,-17.08629 -0.0381,-35.47431 -0.0786,-53.0459 -0.0381,-16.553065 -0.0679,-32.381603 -0.0302,-45.714856 -15.8924,-0.08019 -24.72867,0.214909 -39.34628,-0.04249 -0.47434,16.578698 -0.69627,23.34935 -1.24882,42.066966 -11.09243,-0.4692 -17.91049,-0.12709 -29.563516,-0.43377 2.647081,-13.37439 3.508543,-16.744184 5.695599,-29.60968 -15.38625,-0.43464 -20.805242,-0.490626 -38.34149,-0.338363 -0.125976,16.950153 0.01795,47.843993 -0.07176,66.205203 5.755133,9.63307 10.918982,18.25409 16.437344,27.44508 5.523488,9.19953 11.402148,18.97009 18.584413,30.89811 z"
       id="path1498"
       sodipodi:nodetypes="ccscccccccsc" />
  </g>
</svg>
